PathFileType	4	(X/Y/Z)	Kaydara	
DataRate	CameraRate	NumFrames	NumMarkers	Units	OrigDataRate	OrigDataStartFrame	OrigNumFrames	
120.00	120.00	4	72	mm	120.00	68	268	
Frame#	Time	Hips			RightUpLeg			RightLeg			RightFoot			RightFoot_End			LeftUpLeg			LeftLeg			LeftFoot			LeftFoot_End			Spine			Spine1			Spine2			Spine3			Neck			Head			Head_End			RightShoulder			RightArm			RightForeArm			RightHand			RightHandThumb1			RightHandThumb2			RightHandThumb3			RightHandThumb3_End			RightInHandIndex			RightHandIndex1			RightHandIndex2			RightHandIndex3			RightHandIndex3_End			RightInHandMiddle			RightHandMiddle1			RightHandMiddle2			RightHandMiddle3			RightHandMiddle3_End			RightInHandRing			RightHandRing1			RightHandRing2			RightHandRing3			RightHandRing3_End			RightInHandPinky			RightHandPinky1			RightHandPinky2			RightHandPinky3			RightHandPinky3_End			LeftShoulder			LeftArm			LeftForeArm			LeftHand			LeftHandThumb1			LeftHandThumb2			LeftHandThumb3			LeftHandThumb3_End			LeftInHandIndex			LeftHandIndex1			LeftHandIndex2			LeftHandIndex3			LeftHandIndex3_End			LeftInHandMiddle			LeftHandMiddle1			LeftHandMiddle2			LeftHandMiddle3			LeftHandMiddle3_End			LeftInHandRing			LeftHandRing1			LeftHandRing2			LeftHandRing3			LeftHandRing3_End			LeftInHandPinky			LeftHandPinky1			LeftHandPinky2			LeftHandPinky3			LeftHandPinky3_End			
		X1	Y1	Z1	X2	Y2	Z2	X3	Y3	Z3	X4	Y4	Z4	X5	Y5	Z5	X6	Y6	Z6	X7	Y7	Z7	X8	Y8	Z8	X9	Y9	Z9	X10	Y10	Z10	X11	Y11	Z11	X12	Y12	Z12	X13	Y13	Z13	X14	Y14	Z14	X15	Y15	Z15	X16	Y16	Z16	X17	Y17	Z17	X18	Y18	Z18	X19	Y19	Z19	X20	Y20	Z20	X21	Y21	Z21	X22	Y22	Z22	X23	Y23	Z23	X24	Y24	Z24	X25	Y25	Z25	X26	Y26	Z26	X27	Y27	Z27	X28	Y28	Z28	X29	Y29	Z29	X30	Y30	Z30	X31	Y31	Z31	X32	Y32	Z32	X33	Y33	Z33	X34	Y34	Z34	X35	Y35	Z35	X36	Y36	Z36	X37	Y37	Z37	X38	Y38	Z38	X39	Y39	Z39	X40	Y40	Z40	X41	Y41	Z41	X42	Y42	Z42	X43	Y43	Z43	X44	Y44	Z44	X45	Y45	Z45	X46	Y46	Z46	X47	Y47	Z47	X48	Y48	Z48	X49	Y49	Z49	X50	Y50	Z50	X51	Y51	Z51	X52	Y52	Z52	X53	Y53	Z53	X54	Y54	Z54	X55	Y55	Z55	X56	Y56	Z56	X57	Y57	Z57	X58	Y58	Z58	X59	Y59	Z59	X60	Y60	Z60	X61	Y61	Z61	X62	Y62	Z62	X63	Y63	Z63	X64	Y64	Z64	X65	Y65	Z65	X66	Y66	Z66	X67	Y67	Z67	X68	Y68	Z68	X69	Y69	Z69	X70	Y70	Z70	X71	Y71	Z71	X72	Y72	Z72	

68	0.558	3446.805	859.65103	-201.189	3532.0411242409914	855.7940341275462	-231.99951339172821	3395.275015898751	464.27590771596425	-285.27235422064194	3432.57737723315	46.47732241654699	-345.4919844575439	3355.9298648176023	-32.47726203245082	-187.4762416643056	3370.992076675077	835.7405872969011	-156.47046034530888	3248.9967383362527	439.4480628221808	-98.23359955995542	3193.1768056441033	62.30207101874706	69.50184725709089	3227.0970350857056	16.876167057418307	250.66760763099242	3400.3973309713283	981.1552808726962	-260.17272965004594	3346.9017599649496	1046.2962606271099	-307.8381944214289	3284.527378852362	1107.4558685440736	-357.85644271020243	3216.6796766674915	1156.4586741573582	-406.2069807654004	3143.3816698372884	1209.161114365688	-454.37071079456024	3101.665988563155	1281.6200067413338	-410.33942565508767	3078.387079129026	1367.2411069004306	-277.87575787210744	3186.315963358805	1198.6249889934718	-457.2499373539764	3262.0283242400146	1201.619440401513	-531.4550061280634	3334.8172531417304	988.2081224858631	-549.6538142455292	3422.0840234791767	897.5758336142978	-632.7259144124507	3425.136232298288	904.4138535023152	-645.6882657234545	3417.1758958767778	906.0539277242057	-662.0468253052434	3412.935198959653	904.9750020400134	-672.5656713168408	3410.5144904451395	902.1754786740358	-680.5877288267637	3431.7394261510153	896.9392881344208	-643.3221669395432	3444.169969606736	888.334619035237	-658.1182006698632	3443.9925089476137	883.0943969858931	-670.6848567306201	3437.0106523578515	882.7239655473966	-679.3068212755252	3426.5967140402395	884.365008829481	-686.9890979653995	3434.4307934606913	891.2333622275128	-640.5399606069129	3448.0134521305563	879.7540765991897	-653.4660214652284	3448.12357800588	873.3119116738611	-666.766482254126	3439.8459799628704	872.5175626274289	-676.9707318328776	3428.522095165373	874.1442590035164	-685.2803612932876	3436.1156661757927	887.397880691004	-638.1709457985622	3450.0454433366035	873.7109655075801	-647.6232744660978	3450.4293992725256	867.3742619914249	-658.7745441492343	3442.5979128500994	866.2247978613786	-668.3829142475763	3432.0230608699057	867.5726943742352	-676.0849642842741	3436.9047315402663	883.4142437294568	-635.2152296659713	3450.5091675489807	868.3220679231839	-641.9808163360691	3451.2043983025915	862.1818194525362	-650.1805813218507	3445.679655252605	860.8277125634321	-656.8359564705388	3436.420007810828	861.7249485590829	-663.4555602819491	3148.522450294794	1187.6803486609322	-417.5985822095608	3095.2417110100914	1124.1419872411338	-346.79878735806074	3196.9896466161376	996.4003640979187	-508.5866001547786	3378.2158040056647	935.5043025494538	-493.9035178504016	3370.34404476301	945.4820257766677	-500.0226262974617	3375.191148845704	945.2120426990443	-525.7498410434042	3379.24389240266	942.9297619093529	-545.6365369803679	3383.201832795789	939.2355362779164	-563.9007230206361	3370.8450500245463	939.3706829143383	-506.45632071415463	3367.3089971038085	935.4302287563638	-538.1055620519084	3371.281758119355	930.1209671491376	-566.4898896958543	3377.005715017312	927.4228516452303	-583.5663740499581	3383.9384234837466	925.5961267709962	-597.3160628110782	3373.1158499820003	933.689755457895	-511.0158187791772	3370.8933306140057	926.7742697470474	-544.3499575709126	3375.5475371679236	920.2408013827392	-575.8298053839485	3382.60643415538	916.6305172502957	-596.6751977960611	3390.2665265322116	914.4591191239397	-611.8380958883383	3374.748802252147	929.7883245364009	-513.384066541278	3373.9942674413564	920.2378627174907	-545.1811011548448	3378.381263329055	913.7976691814814	-573.0851260966508	3385.3655833599223	909.9193115422362	-593.4396694646568	3392.6511466951924	907.6900177226125	-607.8139027064317	3377.218594451192	925.314559766302	-515.5543149566636	3377.8413098493006	913.8344934718967	-545.9142063334432	3381.873410307649	907.5557760759875	-568.8475080897074	3387.2189388762586	904.1843058284828	-583.9790167898472	3393.8172926395678	901.8972533716193	-596.8761688921428
69	0.567	3446.805	859.65103	-201.189	3531.628246324073	855.52366930254	-232.29413726655784	3395.1222472174577	463.98895618858836	-285.59627547967574	3432.6221541463638	46.567856347079804	-346.47183803987303	3356.4480188301504	-32.53744398847318	-188.5975210061959	3371.3851318794655	836.0149046970374	-156.15322321391548	3249.4580387160663	439.7064562435562	-97.99088431255552	3193.516012832469	62.40889441581107	69.51666014981974	3227.7405410706892	16.878515328065358	250.58028037991127	3400.5086460024495	981.1545884579314	-260.2530156404915	3347.03286728495	1046.3045658190624	-307.9228157272723	3284.6830053706194	1107.4908001785573	-357.93100326645396	3216.844015316877	1156.5171162951028	-406.25288045165536	3143.5547490815275	1209.2454550157795	-454.38204958086806	3101.683053636693	1281.6528623689142	-410.42541949113564	3078.533854981286	1367.2711220438835	-277.96051778004613	3186.3717059778046	1198.5777007032568	-457.33111568020183	3261.65079151072	1201.046085550848	-531.6975464458359	3332.986304483662	987.320391698284	-549.0480340681315	3418.739000727771	894.9823695545383	-631.5648048558733	3422.0880982545395	901.5195025736289	-644.7354594456882	3414.250727866079	902.8005442685692	-661.3093375506425	3410.0256557827643	901.4628775775158	-671.9501856553658	3407.5580854480536	898.4401992130358	-680.0500445332414	3428.4656814757996	893.9834338932565	-642.2813444112139	3440.7536894150458	884.8041577595936	-657.1876652481044	3440.487145656684	879.1783085093067	-669.8682004730225	3433.523541562248	878.6276343634811	-678.595550078444	3423.1743788447707	880.1596273704588	-686.3883837126381	3430.972081193085	888.2744896105922	-639.421057267611	3444.315663060683	876.2331122349681	-652.4124441388685	3444.3046503305372	869.3716350927825	-665.8265553854376	3436.0375883833794	868.3605418215602	-676.1528549871826	3424.7789991671416	869.8682632000829	-684.580976512125	3432.529323629194	884.4512213709221	-636.9935256192143	3446.132324920981	870.2702389166666	-646.4520298221544	3446.3866190128433	863.5704670692265	-657.6914122063899	3438.5525101820804	862.2132136144676	-667.4116964103466	3428.032992529906	863.4498494847792	-675.2224053656757	3433.1800524625123	880.500798544651	-633.9714072034294	3446.397469009112	864.9746976112024	-640.6999528575982	3446.9527380769264	858.5496265115239	-648.9531758159301	3441.408603676914	857.0468162682804	-655.6819093474172	3432.1879143060096	857.8471379156991	-662.3930074902236	3148.821292900112	1187.8834437254673	-417.5796512439731	3095.9375379967687	1124.7734942604554	-346.458782447546	3196.4210670846724	995.383432032424	-507.2563761038251	3376.855381909051	933.1531406734192	-492.9954777173304	3368.7640326586798	943.0365035975726	-499.19033762202423	3373.5916548201726	942.7161074199792	-524.8224443502178	3377.666697906981	940.3809213952002	-544.6166251587085	3381.6739136727333	936.6273640135672	-562.781201845655	3369.361826323171	936.8400801712909	-505.5462299797207	3365.821561150385	932.6140424616683	-537.0538831064804	3369.853577645312	927.1734651739649	-565.289150524745	3375.619618485693	924.4673764514272	-582.2776251933095	3382.590696904457	922.6837424999272	-595.9576121262575	3371.733284247533	931.1238900343961	-510.0367718146677	3369.561084067359	923.9107617370312	-543.1955255556754	3374.293322895874	917.2303592342456	-574.5040180671577	3381.4094095271093	913.6087068464037	-595.2390539822069	3389.1146061208487	911.4836090749832	-610.3236560721992	3373.437061208603	927.2039756745569	-512.360229296453	3372.787939070835	917.3682122515632	-543.9621175400545	3377.2565426444003	910.7967059077715	-571.7081662727497	3384.3032452027473	906.9056606871775	-591.9516836265167	3391.634637894851	904.7190838636776	-606.2501297229119	3375.9917378188447	922.7239378976536	-514.4804880521544	3376.7621317426638	910.9753579089892	-544.6315807264465	3380.880332099714	904.5876791154772	-567.4257795316687	3386.281400523392	901.2051110965284	-582.4702097851732	3392.9261280712735	898.9548381783563	-595.2967174227455
70	0.575	3446.805	859.65103	-201.189	3531.2071748329327	855.2413494677297	-232.61410207066928	3394.9810597838614	463.6707529230899	-285.8672098616059	3432.707926322735	46.63800311453624	-347.45128188516713	3356.997990599739	-32.61762019097959	-189.72493540784512	3371.7871264035366	836.3023063739172	-155.80846338572576	3249.9901208992533	439.95919455404015	-97.75591389415953	3193.9017536380693	62.598023915129886	69.73233067488312	3228.441533272605	17.042713656922448	250.70598329155447	3400.6171684015944	981.1496778712873	-260.34127154397225	3347.1672842420408	1046.3142000194068	-308.0138276731319	3284.8527028056933	1107.5370465381695	-358.01098446244004	3217.042191654863	1156.6072122881374	-406.3071614673893	3143.7828570902516	1209.383189020281	-454.4053312926044	3101.7827990919236	1281.7515261341914	-410.5162342684796	3078.7231887228418	1367.367875370749	-278.0575323204259	3186.488358015541	1198.6052922575313	-457.39329220377743	3261.3759241657494	1200.6604809329228	-531.8251180106271	3331.4570914085693	986.7608513912882	-548.3171201650607	3416.017377514089	893.2373997964918	-630.4410712302671	3419.5821998431197	899.5020008007245	-643.7819763254734	3411.820107370914	900.4717085105956	-660.499841063982	3407.589788810559	898.9127026423802	-671.2137804211436	3405.0685127837955	895.7016294023579	-679.3513199610135	3425.7704747646703	891.9220696296567	-641.2420856272918	3437.895241671782	882.2538375179857	-656.1938434094561	3437.527783960575	876.3017617075253	-668.9271523110716	3430.5680477151304	875.5976071131035	-677.7175372417645	3420.267013083765	877.0358429846193	-685.5829342174324	3428.1263098398	886.218497842616	-638.3072950277328	3441.2292272013597	873.7031088551428	-651.3026948177375	3441.088775933844	866.4879663183484	-664.764440361158	3432.8171076267695	865.29281456702	-675.1620148046784	3421.606673782262	866.6984878946728	-683.6672111235221	3429.5808063102477	882.4112318635117	-635.8255833152621	3442.8773578826476	867.8185446230666	-645.2395299284332	3442.9994694243746	860.8136306611066	-656.5102574528499	3435.1506348563207	859.2804917680269	-666.2938888288846	3424.6715218476675	860.4219605525943	-674.1745081693065	3430.1220825120477	878.495542559759	-632.7427239629615	3442.989091479096	862.6121791022524	-639.3916836957637	3443.409644975984	855.9494156921062	-647.6543316219651	3437.8408056142175	854.3215333639072	-654.4216878912367	3428.647871427365	855.0394043584228	-661.1903520721727	3149.1516931444003	1188.101263134854	-417.5987816370892	3096.63340742372	1125.3896629332262	-346.23251602840816	3196.042124852077	994.7162468780597	-506.13389612754685	3375.437033039999	931.102126170401	-492.2514639597532	3367.238174428653	940.9572855448646	-498.4838641828622	3372.086461930007	940.6075221579629	-524.0040340669209	3376.1976288937844	938.2380466754691	-543.7018281395428	3380.2535530434534	934.4440636500947	-561.7702813820267	3367.896716514183	934.7032996692369	-504.7865096668175	3364.3972061134796	930.3181021368458	-536.161121458935	3368.496561990597	924.7954326311866	-564.2536571247031	3374.304997707581	922.0776648440445	-581.1512095272498	3381.311522608871	920.310912876903	-594.7544654851117	3370.32772068209	928.9563732171769	-509.22916078192804	3368.227468609297	921.5713715774004	-542.2322601687993	3373.0409612511307	914.7978861665961	-573.3790550249697	3380.21192549519	911.1604612420756	-594.0015411544313	3387.957721327962	909.053018614886	-609.000797945815	3372.0722816428915	925.0183918217951	-511.5225418304457	3371.522323983867	915.0117030452082	-542.9598825300103	3376.0695838938223	908.3557596531183	-570.559154307649	3383.173380484245	904.4477458684544	-590.6910073114591	3390.5449176835004	902.2769367821322	-604.907738025627	3374.6747172121686	920.5253961335793	-513.6091346777279	3375.5646963137333	908.6106192254553	-543.5897247915135	3379.757675031646	902.15091745537	-566.2579943861191	3385.2060922451715	898.7538399151624	-581.2169149021016	3391.889663766206	896.5163076273003	-593.9686974518754
71	0.583	3446.805	859.65103	-201.189	3530.794795072312	854.9783603500031	-232.9120737239148	3394.8881509422617	463.34450712592184	-286.0152339039723	3432.8890357386426	46.70996752503728	-348.33284273507434	3357.6327004003547	-32.69341021962544	-190.7606106904698	3372.1809235637484	836.5692658942548	-155.4883693354478	3250.544748506684	440.18980688168756	-97.5196122862123	3194.285048302116	62.85962762627793	70.14117369936484	3229.1396025473996	17.354550188598765	251.0370327559158	3400.723033856373	981.1484560547648	-260.41921047304254	3347.3112259981567	1046.3430873933369	-308.08458145004863	3285.04952832443	1107.6236904184134	-358.06252085869295	3217.294694522675	1156.770769037475	-406.3308774034861	3144.094252517682	1209.6290535528992	-454.3961460272102	3102.010541623657	1281.9763755985903	-410.5623786164255	3078.982723023862	1367.5957429433086	-278.12281204925415	3186.6943723252193	1198.7685188057055	-457.3800700250785	3261.2564836391	1200.6025314743174	-531.7223696199328	3330.5470995578544	986.7830664178878	-547.4449324157014	3414.4293279995627	892.9395637700944	-629.414417491051	3418.117283067391	899.0455302521667	-642.8410935763654	3410.4023369562565	899.8325553548552	-659.6153126017775	3406.167199034631	898.1441164589846	-670.350268711358	3403.609697801737	894.8232458269762	-678.4897353098233	3424.1784035175956	891.4418799869976	-640.2417642018083	3436.1724649025255	881.4920658259384	-655.1746636735198	3435.732661590609	875.3505990177346	-667.9053446560866	3428.7789763822593	874.5559548075885	-676.71616748008	3418.5173695449503	875.9376773736697	-684.613370079427	3426.43726856291	885.7424001465523	-637.2585507731701	3439.360243217091	872.9545754104017	-650.2093622019332	3439.128500884101	865.5342311621084	-663.6619241927252	3430.858206689472	864.2306088172998	-674.081126551515	3419.68803490376	865.5747871484014	-682.6196499377302	3427.8261304084144	881.9450724017615	-634.7428799460765	3440.9030925309453	867.1164555109455	-644.0867156346605	3440.9333020871404	859.934612029164	-655.3430578233445	3433.07924390259	858.2978666839707	-665.144161475769	3422.6348835588087	859.381998992851	-673.0545112017844	3428.2991769856067	878.0500769566191	-631.6232350300279	3440.9211286107416	861.9625263949997	-638.1844358429579	3441.249811663096	855.1621163812741	-646.4259152464709	3435.668321305403	853.4606139193439	-653.201348191407	3426.501083673032	854.1288161158651	-659.9936630236909	3149.5352403191782	1188.3725494893263	-417.6263723938738	3097.3231418575588	1125.992279887482	-346.17418477613364	3195.983648973237	994.6653859921456	-505.34175806439663	3374.2083586134277	929.9706250538599	-491.71331593062143	3366.0617825673817	939.8952731753988	-497.9269638065427	3370.985831246125	939.5536262969999	-523.3155049167908	3375.151288756848	937.1820209384999	-542.9149856223471	3379.253783014056	933.3796029964183	-560.8957924096812	3366.729708659426	933.6245289465368	-504.2129025846861	3363.3340272940277	929.2704112542913	-535.4703726909031	3367.5104534082525	923.7439149473151	-563.4341627953113	3373.360143953899	921.0137227490048	-580.2402566114754	3380.396321722247	919.2299121590557	-593.7601108977954	3369.161492181426	927.8541431773991	-508.63930656480494	3367.1629318572845	920.4867738276104	-541.5193748866861	3372.060295058639	913.7058841293334	-572.5238606811223	3379.2809218093616	910.0519198807727	-593.0351305112117	3387.059110910056	907.9250591069629	-607.942705610382	3370.903936111522	923.8990084613798	-510.924612001751	3370.4432234410597	913.8938566210501	-542.2458882916062	3375.063192408787	907.2281301359401	-569.7194491556716	3382.2146832789936	903.3023951213514	-589.7431367824747	3389.6165791717267	901.112489484479	-603.8732426291988	3373.5010664479755	919.3836572552523	-513.0020375071009	3374.469601943091	907.4572365415264	-542.8718711907948	3378.719802326174	900.9844976019593	-565.4373690150918	3384.202522965442	897.5719773410465	-580.3163738050113	3390.9127080006265	895.3160805908067	-592.9908332063887
